<svg id="Layer_1" data-name="Layer 1" xmlns="http://www.w3.org/2000/svg" viewBox="0 0 50 50"><defs><style>.cls-1{fill:#fff;}</style></defs><title>bulb</title><path class="cls-1" d="M38.66,8.89a17.22,17.22,0,0,0-12-6.68h0A17.21,17.21,0,0,0,14.5,33a4.11,4.11,0,0,1,1.59,3.24L17.15,47.6,33,47.86l1-11.65A4,4,0,0,1,35.44,33,17.22,17.22,0,0,0,38.66,8.89Zm-9,36.58-9.35-.88V41.88l9.35.89Zm0-5-9.35-.89V36.81l9.35.89Zm8.24-19.91a13,13,0,0,1-5,9.06v0c-1.45,1.11-2.48,3.57-2.93,5.34H20c-.46-1.78-1.5-4.24-2.95-5.37a13,13,0,1,1,20.82-9Z"/></svg>