<?xml version="1.0" encoding="utf-8"?>
<!-- Generator: Adobe Illustrator 22.0.1, SVG Export Plug-In . SVG Version: 6.00 Build 0)  -->
<svg version="1.1" id="Layer_1" xmlns="http://www.w3.org/2000/svg" xmlns:xlink="http://www.w3.org/1999/xlink" x="0px" y="0px"
	 viewBox="0 0 50 50" style="enable-background:new 0 0 50 50;" xml:space="preserve">
<style type="text/css">
	.st0{fill:#FFFF00;}
</style>
<path class="st0" d="M38.7,8.9c-2.9-3.8-7.2-6.2-12-6.7l0,0c-9.5-0.9-17.9,6-18.8,15.4C7.3,23.6,9.8,29.4,14.5,33
	c1,0.8,1.6,2,1.6,3.2l1.1,11.4L33,47.9l1-11.7c0-1.2,0.5-2.4,1.4-3.2C43,27.2,44.4,16.4,38.7,8.9z M29.7,45.5l-9.4-0.9v-2.7l9.4,0.9
	V45.5z M29.7,40.5l-9.4-0.9v-2.8l9.4,0.9V40.5z M37.9,20.6c-0.3,3.6-2.2,6.9-5,9.1l0,0c-1.5,1.1-2.5,3.6-2.9,5.3H20
	c-0.5-1.8-1.5-4.2-3-5.4c-5.7-4.4-6.8-12.5-2.4-18.2s12.5-6.8,18.2-2.4C36.4,11.7,38.3,16.1,37.9,20.6L37.9,20.6z"/>
</svg>
