<svg id="Layer_1" data-name="Layer 1" xmlns="http://www.w3.org/2000/svg" viewBox="0 0 50 50"><defs><style>.cls-1{fill:#fff;}</style></defs><title>lock</title><path class="cls-1" d="M41.56,20.42V46.53l-33.11,0h0c0-7,0-1.71.1-26.15.09,0,2.37,0,2.59,0v-.58c.06-1.54,0-3.11.2-4.64a13.85,13.85,0,0,1,27.15-1.1,14.4,14.4,0,0,1,.39,3.64v2.68m-23.11,0H34.24c0-.41,0-.78,0-1.15A28.81,28.81,0,0,0,34.13,16a9.22,9.22,0,0,0-18.3.42c-.1,1.15-.05,2.3-.07,3.46ZM29.6,41.93c0-.12-.05-.18-.07-.25-.74-2.5-1.48-5-2.25-7.48a.56.56,0,0,1,.27-.78,4.54,4.54,0,0,0,1.69-5.63,4.61,4.61,0,0,0-5.33-2.65,4.56,4.56,0,0,0-3.47,3.79,4.44,4.44,0,0,0,2.12,4.57.4.4,0,0,1,.2.55c-.66,2.15-1.3,4.31-2,6.47-.14.46-.27.92-.42,1.41Z"/></svg>