<?xml version="1.0" encoding="utf-8"?>
<!-- Generator: Adobe Illustrator 22.0.1, SVG Export Plug-In . SVG Version: 6.00 Build 0)  -->
<svg version="1.1" id="Layer_1" xmlns="http://www.w3.org/2000/svg" xmlns:xlink="http://www.w3.org/1999/xlink" x="0px" y="0px"
	 viewBox="0 0 50 50" style="enable-background:new 0 0 50 50;" xml:space="preserve">
<style type="text/css">
	.st0{fill:#FFFF00;}
</style>
<path class="st0" d="M41.6,20.4v26.1H8.5l0,0c0-7,0-1.7,0.1-26.1c0.1,0,2.4,0,2.6,0v-0.6c0.1-1.5,0-3.1,0.2-4.6
	c1.2-7.6,8.3-12.7,15.8-11.5c5.5,0.9,10,5,11.3,10.4c0.3,1.2,0.4,2.4,0.4,3.6v2.7 M15.8,20.4h18.5c0-0.4,0-0.8,0-1.1
	c0-1.1,0-2.2-0.1-3.2c-0.7-5-5.4-8.5-10.4-7.8c-4.2,0.6-7.4,4-7.9,8.2c-0.1,1.1-0.1,2.3-0.1,3.5L15.8,20.4z M29.6,41.9
	c0-0.1,0-0.2-0.1-0.2c-0.7-2.5-1.5-5-2.2-7.5c-0.1-0.3,0-0.6,0.2-0.8c0,0,0,0,0,0c1.9-1.2,2.6-3.6,1.7-5.6c-0.9-2.1-3.1-3.2-5.3-2.6
	c-1.8,0.4-3.2,1.9-3.5,3.8c-0.3,1.8,0.5,3.6,2.1,4.6c0.2,0.1,0.3,0.3,0.2,0.5c0,0,0,0,0,0c-0.7,2.2-1.3,4.3-2,6.5
	c-0.1,0.5-0.3,0.9-0.4,1.4H29.6z"/>
</svg>
